<?xml version="1.0" encoding="UTF-8" standalone="no"?>
<svg
   xmlns:dc="http://purl.org/dc/elements/1.1/"
   xmlns:cc="http://creativecommons.org/ns#"
   xmlns:rdf="http://www.w3.org/1999/02/22-rdf-syntax-ns#"
   xmlns:svg="http://www.w3.org/2000/svg"
   xmlns="http://www.w3.org/2000/svg"
   xmlns:sodipodi="http://sodipodi.sourceforge.net/DTD/sodipodi-0.dtd"
   xmlns:inkscape="http://www.inkscape.org/namespaces/inkscape"
   clip-rule="evenodd"
   fill-rule="evenodd"
   stroke-linejoin="round"
   stroke-miterlimit="2"
   viewBox="0 0 24 24"
   version="1.1"
   id="svg4"
   sodipodi:docname="icon.svg"
   inkscape:version="1.0.2-2 (e86c870879, 2021-01-15)">
  <metadata
     id="metadata10">
    <rdf:RDF>
      <cc:Work
         rdf:about="">
        <dc:format>image/svg+xml</dc:format>
        <dc:type
           rdf:resource="http://purl.org/dc/dcmitype/StillImage" />
      </cc:Work>
    </rdf:RDF>
  </metadata>
  <defs
     id="defs8" />
  <sodipodi:namedview
     pagecolor="#ffffff"
     bordercolor="#666666"
     borderopacity="1"
     objecttolerance="10"
     gridtolerance="10"
     guidetolerance="10"
     inkscape:pageopacity="0"
     inkscape:pageshadow="2"
     inkscape:window-width="1719"
     inkscape:window-height="995"
     id="namedview6"
     showgrid="false"
     inkscape:zoom="21"
     inkscape:cx="2.9850494"
     inkscape:cy="10.108493"
     inkscape:window-x="0"
     inkscape:window-y="0"
     inkscape:window-maximized="0"
     inkscape:current-layer="svg4" />
  <path
     d="m 18.534522,10.811909 c 2.951227,0 5.346427,2.395199 5.346427,5.346426 0,2.951228 -2.3952,5.346428 -5.346427,5.346428 -2.951228,0 -5.346427,-2.3952 -5.346427,-5.346428 0,-2.951227 2.395199,-5.346426 5.346427,-5.346426 z m -6.351555,8.315476 c -0.06178,0.0011 -0.123562,0.0011 -0.185343,0.0011 -4.8450514,0 -9.1982313,-3.674778 -11.70748794,-7.70242 -0.11405713,-0.188907 -0.17108564,-0.401576 -0.17108564,-0.614245 0,-0.212669 0.0582167,-0.425338 0.17227379,-0.614244 C 2.7993927,6.169972 7.1525726,2.4951943 11.997624,2.4951943 c 4.922276,0 9.262388,3.6712134 11.719368,7.7143007 0.109302,0.185343 0.163957,0.394447 0.163957,0.602364 0,0.207917 -0.05465,0.417021 -0.163957,0.602363 l -0.0095,0.01544 C 22.425534,10.027714 20.58161,9.1485243 18.534523,9.1485243 c -0.689095,0 -1.355617,0.0998 -1.985307,0.2851427 C 15.957544,7.4816779 14.143323,6.0595282 12,6.0595282 c -2.6233137,0 -4.7523799,2.1290662 -4.7523799,4.7523808 0,2.471237 1.8902591,4.505255 4.3032799,4.730993 -0.01663,0.203165 -0.02614,0.407516 -0.02614,0.615433 0,1.060969 0.236432,2.067285 0.658205,2.96905 z m 3.648639,-2.403517 1.713232,1.526702 c 0.112868,0.100988 0.255442,0.150888 0.395637,0.150888 0.16158,0 0.321974,-0.06535 0.439595,-0.192472 l 2.90014,-3.171024 c 0.10455,-0.114058 0.155639,-0.257816 0.155639,-0.3992 0,-0.325538 -0.262568,-0.592859 -0.594046,-0.592859 -0.161581,0 -0.321973,0.06535 -0.439595,0.192471 l -2.504504,2.737371 -1.274826,-1.135819 c -0.114058,-0.100989 -0.254253,-0.150889 -0.395636,-0.150889 -0.329103,0 -0.594048,0.266134 -0.594048,0.59286 0,0.16277 0.06653,0.32435 0.198412,0.441971 z m -3.893387,-2.94291 C 10.327162,13.748879 9.0297626,12.431281 9.0297626,10.811909 9.0297626,9.172337 10.360429,7.8416707 12,7.8416707 c 1.417398,0 2.604305,0.9944354 2.898951,2.3227263 -1.357991,0.826913 -2.41302,2.100551 -2.960732,3.616561 z"
     fill-rule="nonzero"
     id="path2"
     style="fill:#ffffff;stroke-width:1.1881" />
</svg>
